# xmcd CD database file
#
# Track frame offsets:
#	150
#	15610
#	31925
#	47415
#	57798
#	72960
#	88798
#	103803
#	118985
#	133370
#	146785
#	160638
#	174608
#	189208
#
# Disc length: 2759 seconds
#
# Revision: 0
# Processed by: cddbd v1.5.1PL0 Copyright (c) Steve Scherf et al.
# Submitted via: CDex 1.51
#
DISCID=c20ac50e
DTITLE=Glenn Miller - BIG ARTIST SERIES
DYEAR=1900
DGENRE=Jazz
TTITLE0=Moonlight serenade
TTITLE1=In the mood
TTITLE2=Stardust
TTITLE3=Danny boy
TTITLE4=Perfidia
TTITLE5=CHATTANOOGA GHOO-GHOO
TTITLE6=A string of pearls
TTITLE7=Moonlight cocktail
TTITLE8=at last
TTITLE9=Alice Blue Gown
TTITLE10=Missouri waltz
TTITLE11=That old black magic
TTITLE12=Blue evening
TTITLE13=Speak low
EXTD=
EXTT0=
EXTT1=
EXTT2=
EXTT3=
EXTT4=
EXTT5=
EXTT6=
EXTT7=
EXTT8=
EXTT9=
EXTT10=
EXTT11=
EXTT12=
EXTT13=
PLAYORDER=
